<svg xmlns="http://www.w3.org/2000/svg" width="16.657" height="16.657" viewBox="0 0 16.657 16.657">
  <path id="Path_104" data-name="Path 104" d="M23.879,21.22,18.655,16l5.22-5.224a1.528,1.528,0,0,0,0-2.167l-.485-.486a1.509,1.509,0,0,0-1.085-.451h0a1.52,1.52,0,0,0-1.083.45L16,13.347l-5.224-5.22a1.527,1.527,0,0,0-2.165,0L8.125,8.6a1.532,1.532,0,0,0,0,2.172L13.348,16,8.127,21.223a1.53,1.53,0,0,0,0,2.169l.485.485a1.514,1.514,0,0,0,1.086.451,1.535,1.535,0,0,0,1.085-.45L16,18.653l5.222,5.219a1.533,1.533,0,0,0,2.167,0l.485-.484a1.5,1.5,0,0,0,.453-1.085,1.519,1.519,0,0,0-.448-1.086Z" transform="translate(-7.672 -7.671)"/>
</svg>
