<svg xmlns="http://www.w3.org/2000/svg" width="89.977" height="69.982" viewBox="0 0 89.977 69.982">
  <g id="Group_266" data-name="Group 266" transform="translate(-696.012 -212.009)">
    <path id="Path_122" data-name="Path 122" d="M295.993,105.994H286a15.013,15.013,0,0,0-15,15v10a15.013,15.013,0,0,0,15,15h10a14.774,14.774,0,0,0,4.21-.676,30.91,30.91,0,0,1-16.443,21.2,5,5,0,0,0,4.471,8.943,40.941,40.941,0,0,0,22.758-36.821V120.99A15.012,15.012,0,0,0,295.993,105.994Z" transform="translate(474.999 106.015)" fill="#f0c844"/>
    <path id="Path_123" data-name="Path 123" d="M145.993,105.994H136a15.013,15.013,0,0,0-15,15v10a15.013,15.013,0,0,0,15,15h10a14.774,14.774,0,0,0,4.21-.676,30.91,30.91,0,0,1-16.443,21.2,5,5,0,0,0,4.471,8.943,40.941,40.941,0,0,0,22.758-36.821V120.99A15.012,15.012,0,0,0,145.993,105.994Z" transform="translate(575.012 106.015)" fill="#f0c844"/>
  </g>
</svg>
