<svg xmlns="http://www.w3.org/2000/svg" width="60.168" height="60.167" viewBox="0 0 60.168 60.167">
  <g id="market-research" transform="translate(0.076 0.08)">
    <path id="Path_124" data-name="Path 124" d="M58.12,58.12a2.994,2.994,0,0,1-4.24,0L48.76,53,50,50l3-1.24,5.12,5.12a3,3,0,0,1,0,4.24Z" fill="#ad7043"/>
    <path id="Path_125" data-name="Path 125" d="M45.942,46.2h6v5.487h-6Z" transform="translate(-20.272 48.94) rotate(-45)" fill="#c1814c"/>
    <path id="Path_126" data-name="Path 126" d="M41.661,40.374h4.5v7.071h-4.5Z" transform="translate(-18.188 43.91) rotate(-45)" fill="#bdc2cc"/>
    <rect id="Rectangle_275" data-name="Rectangle 275" width="4" height="10.503" rx="2" transform="translate(48.81 41.376) rotate(45)" fill="#fccd3a"/>
    <circle id="Ellipse_24" data-name="Ellipse 24" cx="24" cy="24" r="24" transform="translate(1 1)" fill="#cfd2da"/>
    <g id="Group_267" data-name="Group 267">
      <g id="stars" transform="translate(4.076 4.072)">
        <circle id="Ellipse_25" data-name="Ellipse 25" cx="21" cy="21" r="21" transform="translate(-0.152 -0.152)" fill="#273b7a"/>
        <g id="Group_268" data-name="Group 268" transform="translate(9.3 9.159)">
          <path id="Path_128" data-name="Path 128" d="M144.822,129.918l-15.1-15.1.369,7.64.119.119-.781.051L118.42,111.619l.188,2.168.094.094L115.585,117l-.135-.135-2.1-.17,23.727,23.727A20.927,20.927,0,0,0,144.822,129.918Z" transform="translate(-113.347 -111.619)" fill="#121149"/>
          <path id="Path_129" data-name="Path 129" d="M161.2,329.263l-14.507-14.507.069,1.358.259.522-.316,1.857-1.061-1.061-1.553-.076,13.107,13.107A20.7,20.7,0,0,0,161.2,329.263Z" transform="translate(-141.58 -298.187)" fill="#121149"/>
        </g>
        <path id="Path_130" data-name="Path 130" d="M118.455,121.841c0-4.947-5.109-5.109-5.109-5.109,4.947,0,5.109-5.109,5.109-5.109,0,4.947,5.109,5.109,5.109,5.109C118.618,116.731,118.455,121.841,118.455,121.841Z" transform="translate(-104.046 -102.463)" fill="#ffc61b"/>
        <path id="Path_131" data-name="Path 131" d="M175.55,111.621c0,4.947,5.109,5.109,5.109,5.109-4.947,0-5.109,5.109-5.109,5.109Z" transform="translate(-161.14 -102.462)" fill="#e09112"/>
        <path id="Path_132" data-name="Path 132" d="M146.709,320a2.638,2.638,0,0,0-2.62-2.62,2.638,2.638,0,0,0,2.62-2.62,2.638,2.638,0,0,0,2.62,2.62A2.638,2.638,0,0,0,146.709,320Z" transform="translate(-132.263 -288.912)" fill="#ffc61b"/>
        <path id="Path_133" data-name="Path 133" d="M175.981,314.756a2.638,2.638,0,0,0,2.62,2.62,2.638,2.638,0,0,0-2.62,2.62Z" transform="translate(-161.536 -288.912)" fill="#e09112"/>
        <path id="Path_134" data-name="Path 134" d="M220.291,167.632c0-8.129-8.4-8.4-8.4-8.4,8.129,0,8.4-8.4,8.4-8.4,0,8.129,8.4,8.4,8.4,8.4C220.558,159.236,220.291,167.632,220.291,167.632Z" transform="translate(-194.5 -138.46)" fill="#ffc61b"/>
        <path id="Path_135" data-name="Path 135" d="M314.109,150.84c0,8.129,8.4,8.4,8.4,8.4-8.129,0-8.4,8.4-8.4,8.4Z" transform="translate(-288.318 -138.46)" fill="#e09112"/>
      </g>
      <path id="Path_127" data-name="Path 127" d="M51.386,45.732a3,3,0,0,0-.453-3.64,3.073,3.073,0,0,0-4.243,0l-1.874-1.875a25.039,25.039,0,1,0-4.595,4.595L42.1,46.686a2.993,2.993,0,0,0,3.64,4.7l7.437,7.435a4,4,0,1,0,5.66-5.648Zm-1.34,1.488,1.541,1.54L48.76,51.585l-1.54-1.539ZM2,25A23,23,0,1,1,25,48,23,23,0,0,1,2,25ZM41.763,43.53a24.962,24.962,0,0,0,1.767-1.767l1.744,1.745-1.767,1.766Zm1.743,5.989a1,1,0,0,1,0-1.415l4.6-4.6a1,1,0,1,1,1.414,1.414l-4.6,4.6A1,1,0,0,1,43.506,49.519Zm13.9,7.9a2.037,2.037,0,0,1-2.82-.006L50.174,53,53,50.174l4.414,4.413a2,2,0,0,1-.006,2.832Z" fill="#373737"/>
    </g>
  </g>
</svg>
