<svg xmlns="http://www.w3.org/2000/svg" width="66.627" height="66.793" viewBox="0 0 66.627 66.793">
  <g id="Group_245" data-name="Group 245" transform="translate(-772.806 -7200)">
    <circle id="Ellipse_21" data-name="Ellipse 21" cx="33" cy="33" r="33" transform="translate(773 7200)" fill="#fff"/>
    <g id="facebook" transform="translate(772.806 7200.166)">
      <path id="Path_78" data-name="Path 78" d="M291.691,508.668q-.416.068-.836.125Q291.275,508.736,291.691,508.668Zm0,0" transform="translate(-253.006 -442.475)" fill="#4d1917"/>
      <path id="Path_79" data-name="Path 79" d="M299.738,507.793c-.133.024-.265.047-.4.07C299.473,507.84,299.605,507.817,299.738,507.793Zm0,0" transform="translate(-260.387 -441.714)" fill="#4d1917"/>
      <path id="Path_80" data-name="Path 80" d="M278.589,510.34q-.487.055-.98.1Q278.1,510.4,278.589,510.34Zm0,0" transform="translate(-241.484 -443.929)" fill="#4d1917"/>
      <path id="Path_81" data-name="Path 81" d="M286.915,509.738c-.156.021-.313.04-.47.058C286.6,509.778,286.759,509.759,286.915,509.738Zm0,0" transform="translate(-249.17 -443.406)" fill="#4d1917"/>
      <path id="Path_82" data-name="Path 82" d="M307.016,506.41l-.352.074Zm0,0" transform="translate(-266.758 -440.511)" fill="#4d1917"/>
      <path id="Path_83" data-name="Path 83" d="M324.768,502.113l-.284.079Zm0,0" transform="translate(-282.259 -436.773)" fill="#4d1917"/>
      <path id="Path_84" data-name="Path 84" d="M319.368,503.543l-.309.08Zm0,0" transform="translate(-277.539 -438.017)" fill="#4d1917"/>
      <path id="Path_85" data-name="Path 85" d="M312.395,505.254c-.109.025-.219.049-.328.074C312.176,505.3,312.286,505.279,312.395,505.254Zm0,0" transform="translate(-271.457 -439.505)" fill="#4d1917"/>
      <path id="Path_86" data-name="Path 86" d="M274.007,511.09q-.263.022-.527.04Q273.744,511.112,274.007,511.09Zm0,0" transform="translate(-237.892 -444.581)" fill="#4d1917"/>
      <path id="Path_87" data-name="Path 87" d="M66.627,33.313A33.313,33.313,0,1,0,33.313,66.627c.2,0,.39,0,.586-.008V40.686H26.742V32.345H33.9V26.207c0-7.119,4.346-10.993,10.7-10.993a58.917,58.917,0,0,1,6.417.328v7.44H46.633c-3.455,0-4.124,1.642-4.124,4.051v5.312h8.26l-1.077,8.341H42.509V65.34A33.331,33.331,0,0,0,66.627,33.313Zm0,0" fill="#4d1917"/>
      <path id="Path_88" data-name="Path 88" d="M265.935,511.43q-.52.034-1.044.052Q265.414,511.464,265.935,511.43Zm0,0" transform="translate(-230.42 -444.877)" fill="#4d1917"/>
      <path id="Path_89" data-name="Path 89" d="M261.057,511.836q-.276.009-.553.014Q260.781,511.845,261.057,511.836Zm0,0" transform="translate(-226.604 -445.23)" fill="#4d1917"/>
    </g>
  </g>
</svg>
