<svg xmlns="http://www.w3.org/2000/svg" width="66.773" height="66.834" viewBox="0 0 66.773 66.834">
  <g id="Group_246" data-name="Group 246" transform="translate(-877 -7204)">
    <circle id="Ellipse_22" data-name="Ellipse 22" cx="33" cy="33" r="33" transform="translate(877 7204)" fill="#fff"/>
    <g id="instagram" transform="translate(877.146 7204.207)">
      <path id="Path_90" data-name="Path 90" d="M219.753,213.376A6.376,6.376,0,1,1,213.376,207,6.376,6.376,0,0,1,219.753,213.376Zm0,0" transform="translate(-180.063 -180.063)" fill="#4d1917"/>
      <path id="Path_91" data-name="Path 91" d="M166.079,139.889a6.335,6.335,0,0,0-3.63-3.63,10.583,10.583,0,0,0-3.552-.658c-2.018-.092-2.622-.112-7.73-.112s-5.713.019-7.73.111a10.59,10.59,0,0,0-3.552.659,6.337,6.337,0,0,0-3.631,3.63,10.588,10.588,0,0,0-.658,3.552c-.092,2.017-.112,2.622-.112,7.73s.02,5.713.112,7.73a10.584,10.584,0,0,0,.658,3.552,6.335,6.335,0,0,0,3.63,3.63,10.57,10.57,0,0,0,3.552.659c2.017.092,2.621.111,7.73.111s5.714-.019,7.73-.111a10.571,10.571,0,0,0,3.552-.659,6.335,6.335,0,0,0,3.63-3.63,10.594,10.594,0,0,0,.659-3.552c.092-2.018.111-2.622.111-7.73s-.019-5.713-.111-7.73A10.571,10.571,0,0,0,166.079,139.889Zm-14.912,21.1a9.823,9.823,0,1,1,9.823-9.823A9.823,9.823,0,0,1,151.167,160.993Zm10.211-17.738a2.3,2.3,0,1,1,2.3-2.3A2.3,2.3,0,0,1,161.378,143.255Zm0,0" transform="translate(-117.854 -117.857)" fill="#4d1917"/>
      <path id="Path_92" data-name="Path 92" d="M33.313,0A33.313,33.313,0,1,0,66.627,33.313,33.317,33.317,0,0,0,33.313,0ZM52.327,41.2a14.035,14.035,0,0,1-.889,4.644,9.781,9.781,0,0,1-5.595,5.595,14.044,14.044,0,0,1-4.643.889c-2.04.093-2.692.115-7.887.115s-5.847-.022-7.887-.115a14.044,14.044,0,0,1-4.643-.889,9.781,9.781,0,0,1-5.595-5.595A14.031,14.031,0,0,1,14.3,41.2c-.094-2.04-.116-2.692-.116-7.887s.022-5.847.115-7.887a14.036,14.036,0,0,1,.889-4.644,9.788,9.788,0,0,1,5.6-5.595,14.048,14.048,0,0,1,4.644-.889c2.04-.093,2.692-.115,7.887-.115s5.847.022,7.887.116a14.051,14.051,0,0,1,4.644.888,9.784,9.784,0,0,1,5.595,5.6,14.033,14.033,0,0,1,.89,4.644c.093,2.04.115,2.692.115,7.887S52.421,39.16,52.327,41.2Zm0,0" fill="#4d1917"/>
    </g>
  </g>
</svg>
