<svg xmlns="http://www.w3.org/2000/svg" width="66.627" height="66.627" viewBox="0 0 66.627 66.627">
  <g id="Group_247" data-name="Group 247" transform="translate(-671.227 -7191.166)">
    <circle id="Ellipse_20" data-name="Ellipse 20" cx="29" cy="29" r="29" transform="translate(676 7195)" fill="#fff"/>
    <path id="linkedin" d="M33.313,0A33.313,33.313,0,1,0,66.627,33.313,33.317,33.317,0,0,0,33.313,0ZM23.633,50.361H15.52V25.951h8.113ZM19.577,22.618h-.053A4.2,4.2,0,0,1,15.04,18.4c0-2.4,1.815-4.218,4.59-4.218A4.216,4.216,0,0,1,24.167,18.4C24.167,20.744,22.406,22.618,19.577,22.618ZM52.888,50.361H44.776V37.3c0-3.282-1.175-5.52-4.11-5.52A4.441,4.441,0,0,0,36.5,34.749a5.556,5.556,0,0,0-.267,1.98V50.361H28.123s.106-22.119,0-24.409h8.113v3.456a8.055,8.055,0,0,1,7.312-4.029c5.338,0,9.34,3.489,9.34,10.986Zm0,0" transform="translate(671.227 7191.166)" fill="#4d1917"/>
  </g>
</svg>
