<svg xmlns="http://www.w3.org/2000/svg" width="76" height="76" viewBox="0 0 76 76">
  <g id="Group_265" data-name="Group 265" transform="translate(-1037 -434)">
    <circle id="Ellipse_23" data-name="Ellipse 23" cx="38" cy="38" r="38" transform="translate(1037 434)" fill="#f7e265"/>
    <g id="blog" transform="translate(1057.598 454.598)">
      <path id="Path_113" data-name="Path 113" d="M84.407,182.232a1.028,1.028,0,0,0-.853-.213A13.808,13.808,0,0,0,72.46,195.552v2.878H61.027a1.027,1.027,0,0,0,0,2.054h12.46a1.027,1.027,0,0,0,1.027-1.027v-1.238A13.7,13.7,0,0,0,81.16,194.2a1.027,1.027,0,0,0,.217-1.018l-.3-.911h.985a1.027,1.027,0,0,0,.89-.515,13.81,13.81,0,0,0,1.835-6.877v-1.85A1.028,1.028,0,0,0,84.407,182.232Zm-1.678,2.645a11.76,11.76,0,0,1-1.282,5.338h-1.8a1.027,1.027,0,0,0-.974,1.352l.558,1.674a11.637,11.637,0,0,1-4.718,2.842v-.529a11.785,11.785,0,0,1,8.215-11.2Zm0,0" transform="translate(-55.892 -169.539)" fill="#663e3b"/>
      <path id="Path_114" data-name="Path 114" d="M31.971,0H3.081A3.084,3.084,0,0,0,0,3.081V31.971a3.084,3.084,0,0,0,3.081,3.081H31.971a3.084,3.084,0,0,0,3.081-3.081V3.081A3.084,3.084,0,0,0,31.971,0ZM3.081,2.054H31.971A1.028,1.028,0,0,1,33,3.081V8.215H2.054V3.081A1.028,1.028,0,0,1,3.081,2.054ZM31.971,33H3.081a1.028,1.028,0,0,1-1.027-1.027v-21.7H33v21.7A1.028,1.028,0,0,1,31.971,33Zm0,0" fill="#663e3b"/>
      <path id="Path_115" data-name="Path 115" d="M62.026,61.027A1.027,1.027,0,1,1,61,60,1.027,1.027,0,0,1,62.026,61.027Zm0,0" transform="translate(-55.867 -55.892)" fill="#663e3b"/>
      <path id="Path_116" data-name="Path 116" d="M122.027,61.027A1.027,1.027,0,1,1,121,60,1.027,1.027,0,0,1,122.027,61.027Zm0,0" transform="translate(-111.759 -55.892)" fill="#663e3b"/>
      <path id="Path_117" data-name="Path 117" d="M182.026,61.027A1.027,1.027,0,1,1,181,60,1.027,1.027,0,0,1,182.026,61.027Zm0,0" transform="translate(-167.651 -55.892)" fill="#663e3b"/>
      <path id="Path_118" data-name="Path 118" d="M273.027,62.054H283.3a1.027,1.027,0,1,0,0-2.054H273.027a1.027,1.027,0,0,0,0,2.054Zm0,0" transform="translate(-253.378 -55.892)" fill="#663e3b"/>
    </g>
  </g>
</svg>
