<svg xmlns="http://www.w3.org/2000/svg" width="76" height="76" viewBox="0 0 76 76">
  <g id="Group_249" data-name="Group 249" transform="translate(-277 -238)">
    <circle id="Ellipse_23" data-name="Ellipse 23" cx="38" cy="38" r="38" transform="translate(277 238)" fill="#f7e265"/>
    <g id="image" transform="translate(296.525 212.603)">
      <path id="Path_100" data-name="Path 100" d="M33.549,48.2H3.4A3.4,3.4,0,0,0,0,51.6v23.19a3.4,3.4,0,0,0,3.4,3.4H33.549a3.4,3.4,0,0,0,3.4-3.4V51.6A3.4,3.4,0,0,0,33.549,48.2ZM2.165,51.6A1.235,1.235,0,0,1,3.4,50.365H33.549A1.235,1.235,0,0,1,34.785,51.6v13.62l-5.109-5.109a1.082,1.082,0,0,0-1.531,0l-8.511,8.511L15.762,64.75a1.083,1.083,0,0,0-1.531,0L3.016,75.966a1.234,1.234,0,0,1-.851-1.174ZM33.549,76.028H6.015L15,67.047l3.873,3.873a1.083,1.083,0,0,0,1.531,0l8.511-8.511,5.875,5.875v6.509A1.235,1.235,0,0,1,33.549,76.028Z" transform="translate(0 0)" fill="#663e3b"/>
      <path id="Path_101" data-name="Path 101" d="M68.828,121.589a4.561,4.561,0,1,0-4.561-4.561A4.566,4.566,0,0,0,68.828,121.589Zm0-6.957a2.4,2.4,0,1,1-2.4,2.4A2.4,2.4,0,0,1,68.828,114.632Z" transform="translate(-59.629 -59.629)" fill="#663e3b"/>
    </g>
  </g>
</svg>
