<svg xmlns="http://www.w3.org/2000/svg" width="76" height="76" viewBox="0 0 76 76">
  <g id="Group_263" data-name="Group 263" transform="translate(-257 -434)">
    <circle id="Ellipse_23" data-name="Ellipse 23" cx="38" cy="38" r="38" transform="translate(257 434)" fill="#f7e265"/>
    <g id="news" transform="translate(276.502 456.126)">
      <path id="Path_102" data-name="Path 102" d="M35.9,0H1.1A1.1,1.1,0,0,0,0,1.1v31.78a1.1,1.1,0,0,0,1.1,1.1H35.9a1.1,1.1,0,0,0,1.1-1.1V1.1A1.1,1.1,0,0,0,35.9,0ZM34.8,2.2V4.927H16.367L15.42,2.2Zm0,29.582H2.2V2.2h10.9l1.453,4.188a1.1,1.1,0,0,0,1.038.738H34.8Zm0,0" fill="#663e3b"/>
      <path id="Path_103" data-name="Path 103" d="M240.493,154.3a1.1,1.1,0,0,0,1.986.52l1.535-2.145,1.535,2.145a1.1,1.1,0,0,0,1.985-.52l.674-6.174a1.1,1.1,0,0,0-2.185-.238l-.362,3.313-.754-1.054a1.1,1.1,0,0,0-1.787,0l-.754,1.054L242,147.884a1.1,1.1,0,0,0-2.185.238Zm0,0" transform="translate(-222.483 -136.296)" fill="#663e3b"/>
      <path id="Path_104" data-name="Path 104" d="M366.884,153.063h-3.5a1.1,1.1,0,0,0,0,2.2h3.5c3.522,0,3.522-5.33,0-5.33h-1.929a.468.468,0,0,1,0-.936h3.5a1.1,1.1,0,0,0,0-2.2h-3.5c-3.522,0-3.525,5.331,0,5.331h1.929A.467.467,0,0,1,366.884,153.063Zm0,0" transform="translate(-336.119 -136.19)" fill="#663e3b"/>
      <path id="Path_105" data-name="Path 105" d="M51.553,154.081v-2.262l1.73,2.834a1.1,1.1,0,0,0,2.037-.572v-6.174a1.1,1.1,0,0,0-2.2,0v2.263l-1.73-2.835a1.1,1.1,0,0,0-2.037.572v6.174A1.1,1.1,0,0,0,51.553,154.081Zm0,0" transform="translate(-45.789 -136.202)" fill="#663e3b"/>
      <path id="Path_106" data-name="Path 106" d="M146.181,145.52a1.1,1.1,0,0,0-1.1,1.1v6.358a1.1,1.1,0,0,0,1.1,1.1h3.908a1.1,1.1,0,0,0,0-2.2H147.28v-.889h1.412a1.1,1.1,0,0,0,0-2.2H147.28v-1.074h2.809a1.1,1.1,0,0,0,0-2.2Zm0,0" transform="translate(-134.599 -135.005)" fill="#663e3b"/>
      <path id="Path_107" data-name="Path 107" d="M55.271,49.424a1.1,1.1,0,1,0-1.1-1.1A1.1,1.1,0,0,0,55.271,49.424Zm0,0" transform="translate(-50.258 -43.814)" fill="#663e3b"/>
      <path id="Path_108" data-name="Path 108" d="M98.376,49.424h3.15a1.1,1.1,0,0,0,0-2.2h-3.15A1.1,1.1,0,0,0,98.376,49.424Zm0,0" transform="translate(-90.257 -43.814)" fill="#663e3b"/>
      <path id="Path_109" data-name="Path 109" d="M78.237,300.375H50.572a1.1,1.1,0,0,0,0,2.2H78.237A1.1,1.1,0,0,0,78.237,300.375Zm0,0" transform="translate(-45.906 -278.671)" fill="#663e3b"/>
      <path id="Path_110" data-name="Path 110" d="M78.237,370.84H50.572a1.1,1.1,0,0,0,0,2.2H78.237A1.1,1.1,0,0,0,78.237,370.84Zm0,0" transform="translate(-45.906 -344.044)" fill="#663e3b"/>
    </g>
  </g>
</svg>
