<svg xmlns="http://www.w3.org/2000/svg" width="76" height="76" viewBox="0 0 76 76">
  <g id="Group_249" data-name="Group 249" transform="translate(-277 -238)">
    <circle id="Ellipse_23" data-name="Ellipse 23" cx="38" cy="38" r="38" transform="translate(277 238)" fill="#f7e265"/>
    <g id="id-card" transform="translate(301.602 255.503)">
      <path id="Path_93" data-name="Path 93" d="M22,4.883H16.8V1.2A1.2,1.2,0,0,0,15.6,0L10.879,0a1.2,1.2,0,0,0-1.2,1.2V4.883H4.4A4.4,4.4,0,0,0,0,9.283V36.558a4.4,4.4,0,0,0,4.4,4.4H22a4.4,4.4,0,0,0,4.4-4.4V9.283A4.4,4.4,0,0,0,22,4.883ZM12.079,2.4l2.32,0v4.88h-2.32ZM24,36.558a2,2,0,0,1-2,2H4.4a2,2,0,0,1-2-2V9.283a2,2,0,0,1,2-2h5.28v1.2a1.2,1.2,0,0,0,1.2,1.2H15.6a1.2,1.2,0,0,0,1.2-1.2v-1.2H22a2,2,0,0,1,2,2Zm0,0" fill="#663e3b"/>
      <path id="Path_94" data-name="Path 94" d="M75.6,361.012H61.2a1.2,1.2,0,0,0,0,2.4H75.6a1.2,1.2,0,0,0,0-2.4Zm0,0" transform="translate(-55.2 -332.133)" fill="#663e3b"/>
      <path id="Path_95" data-name="Path 95" d="M66,421.008H61.2a1.2,1.2,0,1,0,0,2.4H66a1.2,1.2,0,1,0,0-2.4Zm0,0" transform="translate(-55.2 -387.329)" fill="#663e3b"/>
      <path id="Path_96" data-name="Path 96" d="M186,421.008h-4.8a1.2,1.2,0,1,0,0,2.4H186a1.2,1.2,0,1,0,0-2.4Zm0,0" transform="translate(-165.601 -387.329)" fill="#663e3b"/>
      <path id="Path_97" data-name="Path 97" d="M91.2,165.429h9.6a1.2,1.2,0,0,0,1.2-1.2v-2.4a5.988,5.988,0,0,0-3.007-5.2,3.6,3.6,0,1,0-5.978.009A6.132,6.132,0,0,0,90,161.909v2.32A1.2,1.2,0,0,0,91.2,165.429Zm4.8-12a1.2,1.2,0,1,1-1.2,1.2A1.2,1.2,0,0,1,96,153.431Zm-3.6,8.478a3.6,3.6,0,1,1,7.2-.08v1.2H92.4Zm0,0" transform="translate(-82.8 -138.949)" fill="#663e3b"/>
    </g>
  </g>
</svg>
