<svg xmlns="http://www.w3.org/2000/svg" width="76" height="76" viewBox="0 0 76 76">
  <g id="Group_264" data-name="Group 264" transform="translate(-647 -434)">
    <circle id="Ellipse_23" data-name="Ellipse 23" cx="38" cy="38" r="38" transform="translate(647 434)" fill="#f7e265"/>
    <g id="review" transform="translate(666 456.5)">
      <path id="Path_111" data-name="Path 111" d="M35.157,14.65H29.37V3.571A3.074,3.074,0,0,0,26.3.5H3.071A3.074,3.074,0,0,0,0,3.571v16.94a3.074,3.074,0,0,0,3.071,3.071H5.328l1.638,6.552a1.126,1.126,0,0,0,1.961.444l5.772-7h3.022v4.43A2.389,2.389,0,0,0,20.107,30.4H27.7l3.62,4.388a1.126,1.126,0,0,0,1.962-.444l.986-3.945h.889a2.389,2.389,0,0,0,2.386-2.386V17.036A2.389,2.389,0,0,0,35.157,14.65ZM14.168,21.328a1.126,1.126,0,0,0-.869.41L8.61,27.422,7.3,22.182a1.126,1.126,0,0,0-1.093-.853H3.071a.819.819,0,0,1-.817-.818V3.571a.819.819,0,0,1,.817-.818H26.3a.819.819,0,0,1,.817.818v16.94a.819.819,0,0,1-.817.818ZM35.29,28.011a.133.133,0,0,1-.133.133H33.389A1.126,1.126,0,0,0,32.3,29l-.658,2.633L29.1,28.554a1.127,1.127,0,0,0-.869-.41H20.107a.133.133,0,0,1-.133-.133v-4.43H26.3a3.074,3.074,0,0,0,3.07-3.071V16.9h5.787a.133.133,0,0,1,.133.133Zm0,0" fill="#663e3b"/>
      <path id="Path_112" data-name="Path 112" d="M115.971,76.485a1.124,1.124,0,0,1-.524-.129l-3.078-1.618-3.079,1.618a1.126,1.126,0,0,1-1.634-1.188l.588-3.428-2.491-2.427a1.126,1.126,0,0,1,.624-1.921l3.442-.5,1.539-3.119a1.126,1.126,0,0,1,2.02,0l1.539,3.119,3.442.5a1.126,1.126,0,0,1,.624,1.921l-2.49,2.427.588,3.428a1.127,1.127,0,0,1-1.11,1.317Zm-7.011-7.192,1.28,1.248a1.126,1.126,0,0,1,.324,1l-.3,1.762,1.583-.832a1.125,1.125,0,0,1,1.048,0l1.582.832-.3-1.762a1.126,1.126,0,0,1,.324-1l1.28-1.248-1.769-.257a1.126,1.126,0,0,1-.848-.616l-.791-1.6-.791,1.6a1.127,1.127,0,0,1-.848.616Zm0,0" transform="translate(-97.684 -58.051)" fill="#663e3b"/>
    </g>
  </g>
</svg>
