<svg xmlns="http://www.w3.org/2000/svg" width="76" height="76" viewBox="0 0 76 76">
  <g id="Group_249" data-name="Group 249" transform="translate(-277 -238)">
    <circle id="Ellipse_23" data-name="Ellipse 23" cx="38" cy="38" r="38" transform="translate(277 238)" fill="#f7e265"/>
    <g id="video" transform="translate(298.365 259.431)">
      <path id="Path_98" data-name="Path 98" d="M32.294,0H.975A.975.975,0,0,0,0,.975V32.164a.975.975,0,0,0,.975.975H32.294a.975.975,0,0,0,.975-.975V.975A.975.975,0,0,0,32.294,0ZM9.812,29.24v1.949h-3.9V29.24Zm1.949,0h3.9v1.949h-3.9Zm5.848,0h3.9v1.949h-3.9Zm5.848,0h3.9v1.949h-3.9ZM1.949,27.291V5.848h29.37V27.291ZM23.457,3.9V1.949h3.9V3.9Zm-1.949,0h-3.9V1.949h3.9Zm-5.848,0h-3.9V1.949h3.9Zm-5.848,0h-3.9V1.949h3.9Zm21.508,0H29.3V1.949h2.014ZM3.964,1.949V3.9H1.949V1.949ZM1.949,29.24H3.964v1.949H1.949ZM29.3,31.189V29.24h2.014v1.949Zm0,0" fill="#663e3b"/>
      <path id="Path_99" data-name="Path 99" d="M191.225,156l-8.707-5.848a.975.975,0,0,0-1.518.809v11.7a.976.976,0,0,0,1.518.809l8.707-5.848A.975.975,0,0,0,191.225,156Zm-8.276,4.828v-8.038l5.984,4.019Zm0,0" transform="translate(-169.239 -140.237)" fill="#663e3b"/>
    </g>
  </g>
</svg>
